<?xml version="1.0" encoding="utf-8"?>
<!-- Generator: Adobe Illustrator 20.0.0, SVG Export Plug-In . SVG Version: 6.00 Build 0)  -->
<svg version="1.1" id="Layer_1" xmlns="http://www.w3.org/2000/svg" xmlns:xlink="http://www.w3.org/1999/xlink" x="0px" y="0px"
	 viewBox="0 0 800 600" style="enable-background:new 0 0 800 600;" xml:space="preserve">
<style type="text/css">
	.st0{fill:#A244F9;}
	.st1{fill:#7EDB22;}
	.st2{fill:#171717;}
	.st3{fill:#FFFFFF;}
</style>
<g>
	<path class="st0" d="M40.7,403.9L170,122.2h403.7c0,0,78.6-3.7,103.6,28.9c22.3,28.9,61.6,99.2-1.4,200.8
		c-29.8,44-76.5,52.2-76.5,52.2H40.7z"/>
	<path class="st1" d="M75.5,464.8L234,165h416.6c0,0,48.3,2.6,72.1,23.4c26.8,23.4,86.4,133.1,0,232.7
		c-31.5,32.2-55.9,51.8-109.7,56.9C558.1,478,75.5,464.8,75.5,464.8z"/>
	<path class="st2" d="M30.2,449.2L205,149.8h421.3c0,0,54.4-2,78.6,25.7c12.3,14.1,61,77.2,8.1,182.9C672.4,430.2,583,437,583,437
		L30.2,449.2z"/>
	<path class="st3" d="M448.9,208.3H224.3c0,0-26.4,5.6-35.6,33c-9.1,27.4-7.1,62,15.2,69.1H318c0,0,8.4,0,8.1,8.4
		c-0.2,6.5-3.8,13-8.9,13c-5.1,0-155.5,0-155.5,0s-12.5,6.1-12.2,19.8c0.3,11.5,0,20.6,7.6,22.4c7.9,1.8,192,0,192,0
		s21.8-3.2,37.4-20.8c14.7-16.6,19.3-25.7,21.7-34.5c2.4-8.8,0.3-45.7-15.9-45.7s-119.6,0-119.6,0s-6.4-7.5-3-14.2
		c3.4-6.8,8.5-8.1,8.5-8.1h143.3C421.6,250.4,433.8,210.5,448.9,208.3z"/>
	<path class="st3" d="M677,208H479.9c0,0-31.8-1.6-43.7,48.2c-5.8,30.1,11.2,54.2,23.7,54.2s112.8,0,112.8,0s6.3,0.5,7.1,7.1
		c0.9,6.8-4,14.6-11.5,14.6s-148,0-148,0s-17.9,28.4-35.6,40.6h221.2c0,0,37.3-2.4,48.4-35.9c11.2-33.5,3-64.4-10.2-64.4
		s-119.6,0-119.6,0s-8.4-3.9-6.8-12.9c1.7-9.1,8.8-9.8,8.8-9.8h148.7c0,0,9.5-3.7,10.2-22S679.3,208,677,208z"/>
</g>
</svg>
